<?xml version="1.0" encoding="utf-8"?><svg viewBox="0 0 68 63" xmlns="http://www.w3.org/2000/svg" xmlns:xlink="http://www.w3.org/1999/xlink"><style>:root>svg{display:none}:root>svg:target{display:block}</style><svg fill="none" viewBox="-1 -1 68 63" id="image-logo-footer" xmlns="http://www.w3.org/2000/svg"><g clip-path="url(#aa)" fill-rule="evenodd" clip-rule="evenodd"><path d="m25.4 46.004 21.5-21.5c1.8-1.8 4.6-1.8 6.3 0l7.3 7.3c1.8 1.8 1.8 4.6 0 6.3L39 59.704c-1.8 1.8-4.6 1.8-6.3 0l-7.3-7.3c-1.8-1.8-1.8-4.6 0-6.4Z" fill="#1B1A2A"/><path opacity=".5" d="M50.5 39.204c1.8-1.8 1.8-4.6 0-6.3l-6-6-19.1 19.1c-1.8 1.8-1.8 4.6 0 6.3l6 6 19.1-19.1Z" fill="#110F1D"/><path d="m3.5 22.501 20.6-20.7c1.8-1.8 4.6-1.8 6.3 0l7.3 7.3c1.8 1.8 1.8 4.6 0 6.3l-20.6 20.7c-1.8 1.8-4.6 1.8-6.3 0l-7.3-7.3c-1.8-1.7-1.8-4.6 0-6.3Z" fill="#1B1A2A"/><path opacity=".5" d="M37.8 15.501c1.8-1.8 1.8-4.6 0-6.3l-5.5-5.5-18.8 18.8c-1.8 1.8-1.8 4.6 0 6.3l5.5 5.5 18.8-18.8Z" fill="#110F1D"/><path d="m63.6 19.101-5.7 1c-1 .2-1.9-.1-2.6-.8l-11.9-11.9c-2.6-2.6-7-2.6-9.6 0L.2 40.901c-.5.5-.1 1.2.6 1.1l6.2-1c.9-.1 1.8.1 2.4.8l11.8 11.8c3 3 6.9 2.8 9.9-.3l33.1-33.1c.5-.5 0-1.3-.6-1.1Zm-19.3 6.6L29 41.001c-1.5 1.5-4 1.5-5.5 0l-3.3-3.3c-.5-.5-.6-1.4 0-2l15.6-15.6c1.3-1.3 3.5-1.3 4.8 0l3.7 3.7c.5.5.5 1.4 0 1.9Z" fill="#2B2936"/></g><defs><clipPath id="aa"><path fill="#fff" transform="translate(0 .498)" d="M0 0h65.5v60.5H0z"/></clipPath></defs></svg></svg>