<svg width="33" height="33" viewBox="0 0 33 33" fill="none" xmlns="http://www.w3.org/2000/svg"><g clip-path="url(#a)" fill="#FF7800"><path d="M30.329 8.497c-.017-.891-.033-1.733-.033-2.547 0-.638-.517-1.155-1.155-1.155-4.94 0-8.701-1.42-11.836-4.468a1.155 1.155 0 0 0-1.61 0C12.558 3.375 8.798 4.795 3.858 4.795c-.638 0-1.155.517-1.155 1.155 0 .815-.016 1.656-.033 2.548-.158 8.291-.375 19.646 13.45 24.438a1.155 1.155 0 0 0 .757 0c13.826-4.792 13.61-16.148 13.45-24.439Zm-13.83 22.122C4.643 26.312 4.822 16.877 4.981 8.542c.01-.5.019-.985.025-1.46 4.627-.196 8.326-1.598 11.493-4.357 3.168 2.76 6.868 4.161 11.495 4.356.006.475.016.96.025 1.46.16 8.335.338 17.77-11.52 22.078Z"/><path d="m20.477 12.488-5.575 5.574-2.379-2.379a1.155 1.155 0 0 0-1.633 1.634l3.195 3.196a1.151 1.151 0 0 0 1.634 0l6.391-6.392a1.155 1.155 0 1 0-1.633-1.633Z"/></g><defs><clipPath id="a"><path fill="#fff" d="M0 0h33v33H0z"/></clipPath></defs></svg>