<svg width="36" height="36" viewBox="0 0 36 36" fill="none" xmlns="http://www.w3.org/2000/svg"><path d="M30.857 10.457h-2.4c.686-.795 1.114-1.79 1.114-2.9C29.571 5.038 27.463 3 24.857 3A8.21 8.21 0 0 0 18 6.662 8.21 8.21 0 0 0 11.143 3C8.537 3 6.429 5.038 6.429 7.557c0 1.11.428 2.105 1.114 2.9h-2.4C3.96 10.457 3 11.385 3 12.53v4.142c0 .995.737 1.79 1.714 1.989V29.93c0 1.143.96 2.071 2.143 2.071h22.286c1.183 0 2.143-.928 2.143-2.071V18.66c.977-.199 1.714-.994 1.714-1.989V12.53c0-1.144-.96-2.072-2.143-2.072Zm-.428 5.8H19.286v-3.314h11.143v3.314ZM24.857 5.486c1.183 0 2.143.928 2.143 2.071 0 1.144-.96 2.072-2.143 2.072H19.44c.583-2.37 2.794-4.143 5.417-4.143Zm-13.714 0c2.623 0 4.834 1.773 5.417 4.143h-5.417C9.96 9.629 9 8.7 9 7.557s.96-2.071 2.143-2.071ZM5.57 12.943h11.143v3.314H5.571v-3.314Zm1.715 5.8h9.428v10.771H7.286V18.743Zm21.428 10.771h-9.428V18.743h9.428v10.771Z" fill="#FF7800"/></svg>