<svg width="36" height="36" viewBox="0 0 36 36" fill="none" xmlns="http://www.w3.org/2000/svg"><path d="m31.439 29.586-3.748-3.748c1.24-1.474 2.139-3.105 2.272-4.466a1.31 1.31 0 0 0-2.61-.255 2.546 2.546 0 0 1-.123.553L23.56 18l7.878-7.878c.144-.144.252-.32.317-.512l1.854-5.56c.342-1.025-.633-2-1.658-1.658l-5.56 1.853a1.311 1.311 0 0 0-.513.317L18 12.44l-7.878-7.878a1.31 1.31 0 0 0-.512-.316L4.049 2.392c-1.025-.342-2 .633-1.658 1.658l1.854 5.561c.065.193.173.369.317.512l7.877 7.878-3.685 3.686a2.202 2.202 0 0 1-.104-.521 1.31 1.31 0 1 0-2.616.159c.06.98.548 2.114 1.293 3.232l.023.037.087.124v.001a13.074 13.074 0 0 0 .33.456c.17.225.35.449.537.669l-3.743 3.742a1.31 1.31 0 0 0-1.853 1.854l.918.918.008.01.01.008.917.917a1.31 1.31 0 0 0 1.854-1.853l3.748-3.748c1.474 1.24 3.105 2.14 4.466 2.272a1.31 1.31 0 0 0 .255-2.609 2.565 2.565 0 0 1-.553-.124L18 23.562l3.685 3.686c-.185.058-.36.094-.52.103a1.31 1.31 0 0 0 .158 2.617c.983-.06 2.12-.55 3.241-1.3l.027-.016.097-.068.099-.068.104-.073c.08-.057.159-.116.239-.175l.038-.03c.227-.17.453-.352.675-.54l3.742 3.742a1.31 1.31 0 0 0 1.854 1.854l.919-.92.008-.007.007-.008.92-.919a1.31 1.31 0 0 0-1.854-1.854Zm-3.926-22.95 2.78-.927-.927 2.78-7.659 7.659-1.853-1.854 7.659-7.659ZM5.707 5.708l2.78.927 8.575 8.574.01.012 3.709 3.706v.001l5.047 5.046a13.093 13.093 0 0 1-1.847 1.862l-5.051-5.052-.004-.004-3.706-3.706-.002-.001-8.584-8.585-.927-2.78Zm6.32 20.12c-.26-.21-.516-.434-.764-.669l-.004-.004a13.128 13.128 0 0 1-1.094-1.173l4.128-4.128 1.853 1.853-4.12 4.12Z" fill="#FF7800"/></svg>