<svg width="113" height="48" viewBox="0 0 113 48" fill="none" xmlns="http://www.w3.org/2000/svg"><path d="M0 36.569c.493-1.552 1.162-3.009 1.798-4.504l2.628-6.156 1.705-4.015c.439-1.05.855-2.124 1.396-3.128a10.843 10.843 0 0 1 1.885-2.563c1.493-1.488 3.369-2.412 5.427-2.825 1.323-.265 2.69-.183 4.032-.18l4.67.006h18.042l-1.21 2.855c-.373.886-.686 1.95-1.258 2.728a2.575 2.575 0 0 1-1.006.788 2.683 2.683 0 0 1-.922.22c-.948.057-1.918.008-2.867.002l-22.94.004 3.454 1.602-6.23 14.56 23.267.003-1.309 3.01c-.38.9-.689 1.973-1.296 2.743-.264.336-.673.603-1.07.757l-.247.08c-.522.158-1.192.084-1.736.085l-2.96.005-15.565.007c-.952.005-1.927.053-2.876-.022a5.252 5.252 0 0 1-2.112-.603 5.287 5.287 0 0 1-2.263-2.415C.25 39.2.132 38.735 0 38.301v-1.732ZM59.887 0h.85c.585.142 1.17.261 1.724.507 1.277.569 1.979 1.46 2.468 2.748l.581.23-.536 2.144c-.28-.033-.585-.102-.858-.012.007.167.01.305.089.456.263.063.594.027.866.027h11.646c.122 0 .558.046.653 0 .025-.011.093-.13.116-.164.137-.193.304-.5.514-.608l.167.068c.129.332.082.735.073 1.086h3.011l-.004.728-3.008.003.001 1.476-7.724.011c-.14.783-.21 1.45-.695 2.11l.68 2.873-2.935.66-.3-1.375c-.11.075-.222.416-.275.546-.221.539-.414 1.127-.701 1.634-.269.474-.959.679-1.454.816-.196.055-.701.132-.886.067-.207-.073-.452-.262-.646-.374l-1.419-.812c-.277.3-.648.621-.862.966l.6.748-2.39 4.458-.858.106.103 1.83c.01.14-.01.427.038.55.013.032.136.129.17.164.391.396.631.877.902 1.357l2.615 4.591c.35.62.743 1.251.992 1.92.163.437.18.916.176 1.378-.003.28-.018.498-.111.764-.236.678-.559 1.332-.844 1.99l-2.336 5.498c-.2.48-.368 1.025-.637 1.467-.301.495-.984 1.018-1.41 1.435.24.379.477.911.821 1.202.12.102.399.144.555.188.39.11 1.906.468 2.139.694.091.089.1.228.098.351-.003.197-.161.43-.295.563-.286.286-.678.438-1.067.524-1.092.242-2.25.168-3.36.155l-3.57-.032c.141-.803.16-1.633.348-2.427.065-.273.196-.524.273-.795l.933-3.502.54-2.49c.108-.527.165-1.111.363-1.613.23-.58.624-1.143.937-1.684l1.184-2.056c-.364-.19-.79-.379-1.1-.653-.465-.412-.839-1.068-1.196-1.578l-1.598-2.305c-.275-.428-.489-.94-.87-1.288-.122-.11-.2-.113-.358-.102a.733.733 0 0 0-.329.116c-.246.192-.755 1.564-.91 1.905l-1.714 3.772c-.377.838-.712 1.72-1.196 2.505-.28.452-.653.85-.998 1.253l-6.499 7.585.011.21.024.26c.005.373-.069.76-.093 1.133-.032.488-.008 1.081-.137 1.55a.73.73 0 0 1-.205.336c-.25.248-3.539.126-4.057.125-.054-.11-.274-.462-.274-.562 0-.13.213-.416.286-.539.346-.58.925-1.332 1.075-1.984.048-.209.133-.555.113-.762-.015-.169-.24-.458-.332-.606.17-.65.49-1.236.783-1.835l1.041-2.176c.717-1.505 1.37-3.087 2.167-4.548.152-.28.34-.541.532-.795a7.912 7.912 0 0 1 1.223-1.274l.642-.506c.064-.048.214-.131.258-.191.05-.069.077-.506.094-.613.066-.425.168-.851.213-1.279.08-.766.258-4.737.582-5.02.17-.148.719-.08.931-.071l.785-2.012c.143-.372.266-.784.45-1.136.2-.384.658-.546.912-.887.15-.199.216-.509.295-.745l.476-1.398-1.394-.875c.027-.314 1.757-5.255 1.856-5.345.002-.002.119-.001.129-.001.17-.001 1.187.046 1.272-.008.054-.035.385-.86.436-.967.764-1.63 1.46-3.466 2.766-4.75.576-.567 1.268-1.064 2.087-1.18.404-.058.852-.025 1.261-.023l.44-.711c-.191-.156-.546-.263-.779-.365-.086-.896-.277-1.962.096-2.815A3.337 3.337 0 0 1 58.974.25l.913-.25Zm25.646 13.225L113 13.204l-1.322 3.07c-.377.883-.671 1.974-1.315 2.698a2.57 2.57 0 0 1-1.446.788c-.75.114-1.554.037-2.312.036l-23.045-.004c-.985-.005-1.972-.045-2.956.019l3.352 1.606-1.307 3.036 15.893.003c.704-.002 1.436-.043 2.138.017a5.288 5.288 0 0 1 1.67.419 5.312 5.312 0 0 1 2.788 2.908c.809 2.095-.066 3.929-.886 5.85l-1.282 2.96c-1.225 2.73-3.523 4.496-6.265 5.538-.716.25-1.427.38-2.182.45-1.412.132-2.87.052-4.289.051l-23.632.004 1.177-2.671c.431-1.048.805-2.46 1.618-3.277A2.435 2.435 0 0 1 70.783 36c.904-.126 1.865-.048 2.779-.044l4.708.004 16.758-.003c.334-.536.522-1.193.766-1.776l1.264-2.938c-.428-.07-.932-.02-1.367-.02l-13.276.002-2.275.005c-.579.001-1.153.023-1.723-.091-.914-.184-1.752-.623-2.467-1.211-.944-.776-1.614-2.117-1.728-3.332a5.744 5.744 0 0 1 .167-1.966c.226-.881.657-1.7 1.017-2.53.804-1.852 1.432-3.641 2.743-5.219 1.884-2.267 4.488-3.389 7.384-3.655Z" fill="#D46712"/></svg>