<svg width="245" height="50" viewBox="0 0 245 50" fill="none" xmlns="http://www.w3.org/2000/svg"><g clip-path="url(#a)"><path d="M230.785 29.515H192.06l-.285.668-3.414 7.995-.651 1.526h38.638c2.382 0 4.003 2.437 3.061 4.642l-1.947 4.558h-55.503l7.954-18.626a16.622 16.622 0 0 1 15.285-10.091h32.707l.285-.668 3.352-7.85.651-1.525h-43.681l3.866-9.047h43.751c5.56 0 9.326 5.683 7.136 10.81l-5.508 12.898a7.758 7.758 0 0 1-6.972 4.71Z" stroke="#3E445E" stroke-width="5"/><path fill-rule="evenodd" clip-rule="evenodd" d="M10.795 1.36c-2.683-.001-5.108 1.577-6.17 4.014L.272 15.489c-.943 2.191.682 4.623 3.09 4.623h14.175a1.68 1.68 0 0 0 1.544-1.01l1.409-3.263H5.572l3.989-9.25-2.166-1.013H23.81a1.68 1.68 0 0 0 1.545-1.01l1.383-3.205-15.943-.002Zm36.568 14.71a6.71 6.71 0 0 1-6.171 4.042H26.21c-2.406 0-4.03-2.435-3.084-4.627l4.352-10.092a6.71 6.71 0 0 1 6.169-4.034h14.982c2.406 0 4.03 2.436 3.084 4.627l-4.35 10.085Zm-4.902-1.24 3.99-9.254H30.342l2.06 1.013-3.99 9.25H40.92c.672 0 1.279-.397 1.542-1.01v.002Zm18.035 33.192h-3.184l6.277-14.539-6.939.001 1.834-4.215h19.272l-1.275 2.986c-.304.713-1.17 1.23-2.019 1.23H68.98L63.589 46a3.362 3.362 0 0 1-3.093 2.02Zm63.068-5.215h-1.695l-4.611-.006-2.29 5.22h-5.295l8.112-18.752h5.282l-3.823 8.852 12.545-8.558c.281-.191.613-.294.954-.294h7.941l-14.056 9.664 6.344 9.089h-5.802l-3.606-5.214ZM113.428 29.27h-5.43l-8.1 18.753h3.953c.849 0 1.757-.558 2.062-1.272l4.723-10.99 2.792-6.491Zm-15.88 18.75H91.89l-2.333-4.273h-10.01l-.973 2.255a3.359 3.359 0 0 1-3.09 2.018h-3.227l8.094-18.752h18.002c2.409 0 4.034 2.435 3.088 4.626l-3.489 8.085a2.945 2.945 0 0 1-2.707 1.769l2.303 4.273v-.001Zm1.77-9.29-2.997-5.247-14.84.013 2.053.983-2.187 5.098h11.247a1.68 1.68 0 0 0 1.546-1.012l2.18-5.081 2.997 5.247Zm44.97-1.674h12.173l-1.146 2.647a1.679 1.679 0 0 1-1.541 1.006h-11.07l-1.319 3.038h14.868l-1.398 3.262a1.677 1.677 0 0 1-1.543 1.012h-16.647c-1.203 0-2.014-1.218-1.542-2.314l6.214-14.422a3.356 3.356 0 0 1 3.085-2.017h18.08l-1.381 3.205a1.676 1.676 0 0 1-1.542 1.009h-16.276l2.098.993-1.113 2.581Zm-88.284-21.22L62.19 1.363h-3.228a3.358 3.358 0 0 0-3.086 2.016l-5.233 12.104c-.947 2.192.677 4.629 3.087 4.629h13.738c2.694 0 5.127-1.593 6.18-4.048l6.308-14.7-3.193-.005a3.356 3.356 0 0 0-3.093 2.023l-4.917 11.44a1.678 1.678 0 0 1-1.547 1.016l-11.202-.002Zm55.377 4.276h-3.185l6.278-14.538h-6.94l1.835-4.215h19.271l-1.274 2.986c-.305.714-1.172 1.23-2.019 1.23h-5.484l-5.389 12.516a3.363 3.363 0 0 1-3.093 2.02Zm58.57-4.273 2.303 4.272h-5.656l-2.333-4.273h-10.012l-.973 2.256a3.36 3.36 0 0 1-3.089 2.017h-3.228l8.094-18.752h18.002c2.409 0 4.035 2.435 3.089 4.627l-3.49 8.084a2.943 2.943 0 0 1-2.707 1.77Zm1.077-10.264 2.996 5.247-2.997-5.247-2.181 5.082a1.678 1.678 0 0 1-1.545 1.012h-11.248l2.188-5.098-2.053-.983 14.84-.013Zm-25.33 3.573h-12.201l1.116-2.581-2.103-.993h16.314a1.68 1.68 0 0 0 1.546-1.01l1.384-3.205h-18.123a3.362 3.362 0 0 0-3.091 2.018l-6.229 14.422c-.474 1.095.339 2.313 1.545 2.313h16.686a1.68 1.68 0 0 0 1.547-1.012l1.401-3.261h-14.902l1.322-3.039h11.095c.672 0 1.279-.395 1.545-1.005l1.148-2.647Zm-63.892 8.945a3.362 3.362 0 0 1-3.09 2.019h-3.23l8.098-18.75 4.046-.003c.623 0 1.196.34 1.487.885l6.46 12.084 4.749-10.949a3.361 3.361 0 0 1 3.085-2.013l3.28-.003-7.67 17.74a1.681 1.681 0 0 1-1.546 1.009H94.04c-.622 0-1.193-.34-1.485-.883L86.331 7.617l-4.526 10.476h.001ZM44.21 43.748l1.294-2.998H34.189c-2.407 0-4.032-2.429-3.092-4.62l.502-1.17.703-1.64c1.053-2.456 3.488-4.051 6.185-4.051h17.257l-1.378 3.204a1.679 1.679 0 0 1-1.545 1.011H34.99l2.112 1.013-.83 1.931h11.303c2.409 0 4.035 2.435 3.089 4.627l-1.265 2.931c-1.056 2.447-3.488 4.036-6.178 4.036H25.963l1.42-3.268a1.68 1.68 0 0 1 1.543-1.006h15.283Z" fill="#3E445E"/></g><defs><clipPath id="a"><path fill="#fff" d="M0 0h245v50H0z"/></clipPath></defs></svg>