<svg width="159" height="68" viewBox="0 0 159 68" fill="none" xmlns="http://www.w3.org/2000/svg"><g clip-path="url(#a)" fill="#231F20"><path d="M20.955 30.338 16.21 28.08h35.98a3.68 3.68 0 0 0 3.386-2.248l3.032-7.142-34.946-.004c-5.88 0-11.197 3.516-13.523 8.947L.596 50.17c-2.067 4.882 1.496 10.302 6.774 10.302h31.066a3.681 3.681 0 0 0 3.386-2.248l3.089-7.273H12.212l8.743-20.613v-.001Zm100.223-11.65c-5.911 0-11.249 3.554-13.555 9.027l-1.541 3.656-1.1 2.605c-2.061 4.882 1.503 10.295 6.777 10.295h24.797l-2.837 6.682h-33.495c-1.472 0-2.801.88-3.382 2.24l-3.112 7.281h37.823c5.898 0 11.226-3.538 13.541-8.992l2.772-6.53c2.073-4.883-1.49-10.308-6.77-10.308h-24.773l1.819-4.302-4.629-2.259h39.08c1.477 0 2.81-.887 3.388-2.253L159 18.69h-37.821l-.001-.002Zm-10.986-9.523a.062.062 0 0 1-.061-.06l.011-1.202c0-.212-.148-.383-.332-.383a.323.323 0 0 0-.264.148c-.032.045-.41.6-.644.942a.067.067 0 0 1-.055.029h-18.44a.133.133 0 0 1-.133-.131l-.037-.502a.134.134 0 0 1 .158-.135l.943.09a.166.166 0 0 0 .175-.126l.687-2.802a.133.133 0 0 0-.083-.154l-.638-.24a.12.12 0 0 1-.074-.083c-.116-.488-1.06-3.75-5.612-4.48-2.214-.354-3.665.597-4.439 1.356-.344.336-.628.73-.85 1.16l-.271.602a6.32 6.32 0 0 0-.13.663l.145 2.78a.31.31 0 0 0 .118.243l.999.434-.552.92a.154.154 0 0 1-.149.113s-1.174.03-1.752.054c-1.086.044-3.503 1.377-5.285 5.21-1.75 3.763-2.038 4.39-2.038 4.39a.207.207 0 0 1-.192.113l-1.626.005c-.1 0-.207.08-.25.172l-2.528 7.205a.316.316 0 0 0 .049.306l1.764 1.11c.05.041.07.106.056.167l-.922 2.739a.563.563 0 0 1-.066.175l-1.223 1.083a.304.304 0 0 0-.101.167l-1.683 4.338a.178.178 0 0 1-.171.129l-.945.005a.46.46 0 0 0-.456.421l-.565 6.484c-.01.114-.025.228-.044.342l-.446 2.573a.37.37 0 0 1-.094.156L60.574 46.9c-.72.692-1.685 1.956-2.157 2.838L53.18 60.853a2.168 2.168 0 0 0-.222.913l.372.667c.005.239-.09 1.292-.199 1.504l-1.754 3.084a.279.279 0 0 0-.008.243l.087.2.262.526 5.325.009c.33.03.695-.396.705-.852l.29-3.673-.076-.553 10.151-11.99a7.64 7.64 0 0 0 .806-1.278l4.837-10.736a.483.483 0 0 1 .283-.249l.305-.1a.475.475 0 0 1 .515.15c.424.512 1.42 2.213 1.904 2.923.401.59 2.391 3.486 3.26 4.441.24.263.98.561 1.312.764a.236.236 0 0 1 .081.317l-2.899 5.124-1.28 6.05a2.61 2.61 0 0 0-.1.433l-1.16 4.202c.008.531-.397.81-.43 1.435l-.422 3.072a.164.164 0 0 0 .164.173l7.162.04h.006c.01 0 .505-.007.798-.019.055-.002.15-.011.212-.02.955-.121 1.608-.253 2.052-.404l.06-.021c.308-.11.509-.232.638-.367.244-.256.526-.57.568-.975l.004-.046.001-.03v-.076a.662.662 0 0 0-.054-.25c0 .001 0 .001 0 0l-.002-.004a.296.296 0 0 0-.023-.042l-.015-.024a.266.266 0 0 0-.086-.081.356.356 0 0 0-.064-.03l-3.325-1.01a1.04 1.04 0 0 1-.532-.379l-.893-1.329a.245.245 0 0 1 .049-.275l1.74-1.726a.577.577 0 0 0 .135-.204l5.359-12.716c.25-.807.168-1.716 0-2.676-.124-.71-1.93-3.758-2.402-4.6-.415-.743-3.005-5.3-3.62-6.38a.945.945 0 0 0-.276-.31 1.243 1.243 0 0 1-.228-.207.68.68 0 0 1-.14-.265l-.204-3.165a.113.113 0 0 1 .1-.144l.933-.078a.261.261 0 0 0 .208-.138l3.229-6.104a.27.27 0 0 0-.007-.266l-.66-.824a.25.25 0 0 1-.004-.248l.99-1.075a.151.151 0 0 1 .207-.059l2.63 1.492c.159.09.34.143.523.143.73-.005 1.931-.439 2.556-.823.165-.102.3-.247.39-.42l1.29-3.032c.017-.038.074-.033.082.008l.36 1.687a.18.18 0 0 0 .222.142l3.798-.85a.187.187 0 0 0 .14-.223l-.894-3.807a.197.197 0 0 1 .026-.152l.37-.576a.804.804 0 0 0 .1-.231l.448-2.054a.115.115 0 0 1 .112-.092l10.507.014a.26.26 0 0 0 .263-.264V10.29a.06.06 0 0 1 .06-.06h4.052a.132.132 0 0 0 .131-.132V9.29a.131.131 0 0 0-.131-.131h-4.053l.004.006Z"/></g><defs><clipPath id="a"><path fill="#fff" d="M0 0h159v68H0z"/></clipPath></defs></svg>